<svg width="407" height="91" viewBox="0 0 407 91" fill="none" xmlns="http://www.w3.org/2000/svg">
<path d="M314.101 13.2291C249.637 -4.66815 125.68 -1.64028 62.0525 14.0207C33.0748 21.1533 -20.3592 41.82 12.1556 61.332C17.8904 64.7736 24.8613 67.5695 32.0735 69.9889C111.447 96.6135 222.153 93.902 307.339 77.9711C320.044 75.5951 332.545 72.7746 344.047 68.9411C352.649 66.074 360.966 62.5203 367.665 58.3732C387.274 46.2325 382.152 34.0145 361.053 23.7218C336.592 11.7882 303.14 8.09008 271.577 6.06476C243.977 4.2938 216.41 3.95373 188.68 4.67651C136.673 6.03185 76.7379 8.18844 33.1193 24.5038C14.0678 31.6301 -6.4005 46.8579 9.93002 59.1826C27.6262 72.5377 69.3519 76.8622 97.417 79.6804C173.128 87.2832 292.923 83.5134 361.886 63.5622C369.323 61.4107 376.857 59.4057 383.509 56.5765C388.766 54.3409 393.799 51.7919 398.165 49.0332C429.106 29.4828 360.063 17.1905 335.713 15.0795C259.112 8.43861 145.738 -1.14481 75.1924 16.5211" stroke="#6664FF" stroke-width="2" stroke-miterlimit="1.5" stroke-linecap="round" stroke-linejoin="round"/>
</svg>
